# Blender 3.1.0
# www.blender.org
mtllib skybox.mtl
o skybox
v -5.000000 -5.000001 4.999999
v -5.000000 4.999999 5.000001
v 5.000000 4.999999 5.000001
v 5.000000 -5.000001 4.999999
v -5.000000 5.000001 -4.999999
v 5.000000 5.000001 -4.999999
v -5.000000 -4.999999 -5.000001
v 5.000000 -4.999999 -5.000001
vn -0.0000 -0.0000 -10.0000
vn -0.0000 -10.0000 -0.0000
vn -0.0000 -0.0000 10.0000
vn -0.0000 10.0000 -0.0000
vn -10.0000 -0.0000 -0.0000
vn 10.0000 -0.0000 -0.0000
vt 0.375000 1.000000
vt 0.375000 0.000000
vt 0.375000 0.250000
vt 0.625000 0.250000
vt 0.625000 1.000000
vt 0.625000 0.000000
vt 0.375000 0.500000
vt 0.125000 0.250000
vt 0.625000 0.500000
vt 0.875000 0.250000
vt 0.375000 0.750000
vt 0.125000 0.000000
vt 0.625000 0.750000
vt 0.875000 0.000000
s 1
usemtl Default_OBJ
f 1/2/1 2/3/1 3/4/1 4/6/1
f 2/3/2 5/7/2 6/9/2 3/4/2
f 5/7/3 7/11/3 8/13/3 6/9/3
f 7/11/4 1/1/4 4/5/4 8/13/4
f 4/6/5 3/4/5 6/10/5 8/14/5
f 7/12/6 5/8/6 2/3/6 1/2/6
